<?xml version="1.0" encoding="UTF-8"?>
<svg id="Capa_1" data-name="Capa 1" xmlns="http://www.w3.org/2000/svg" viewBox="0 0 703.76 607.82">
  <defs>
    <style>
      .cls-1 {
        fill: #fff;
      }

      .cls-2 {
        font-size: 310.49px;
      }

      .cls-3 {
        font-size: 258.74px;
      }

      .cls-4 {
        font-size: 165.59px;
      }

      .cls-4, .cls-5 {
        font-family: FONTSPRINGDEMO-SurimiBold, 'FONTSPRING DEMO - Surimi';
        font-weight: 700;
      }

      .cls-4, .cls-5, .cls-6 {
        fill: #1d1d1b;
      }
    </style>
  </defs>
  <text class="cls-5" transform="translate(14.66 267.02)"><tspan class="cls-2" x="0" y="0">tt</tspan><tspan class="cls-3" x="157.73" y="0">aka</tspan></text>
  <text class="cls-4" transform="translate(27.46 412.35)"><tspan x="0" y="0">jokoak</tspan></text>
  <path class="cls-6" d="m618.03,241.32c-24.13-15.81-43.49-35.08-56.58-54.87-7.1,6.26-14.16,13.32-21.18,21.27-9.56,10.84-17.99,22.19-25.45,33.85-9.49,14.82-17.31,29.93-23.85,44.72-16.19,36.62-24.13,70.96-27.82,91.54-2.22,12.27-2.88,19.68-2.88,19.68,22.79,23.8,50.61,42.03,81.4,53.33,0,0,95.83-54.75,138.53-151.45,4.3-9.74,7.78-19.15,10.47-28.29-23.21-3.98-48.51-13.98-72.64-29.78Zm-78.94,43.75c4.08-6.94,12.88-9.26,19.68-5.18,6.82,4.09,9.06,13.01,5.01,19.92-4.03,6.96-12.85,9.27-19.67,5.18-6.84-4.06-9.08-12.98-5.01-19.92Zm34.44,54.36c-4.07,6.94-12.87,9.26-19.7,5.16-6.82-4.04-9.06-12.97-5.01-19.92,4.07-6.94,12.88-9.26,19.71-5.16,6.81,4.04,9.06,13.02,5.01,19.92Zm4.67-64.42c4.04-6.96,12.86-9.28,19.7-5.21,6.82,4.09,9.06,13.01,4.99,19.95-4.03,6.96-12.88,9.26-19.67,5.19-6.82-4.09-9.06-13.02-5.01-19.92Zm34.44,54.36c-4.05,6.91-12.88,9.26-19.71,5.16-6.79-4.08-9.06-13.02-4.99-19.96,4.05-6.91,12.86-9.22,19.71-5.16,6.79,4.08,9.03,13,4.99,19.96Z"/>
  <path class="cls-6" d="m694.21,265.58c-23.21-3.99-48.52-13.97-72.65-29.78-24.13-15.81-43.49-35.08-56.58-54.88,62.83-55.97,122.72-48.43,122.72-48.43,0,0,31.3,52.2,6.51,133.09Z"/>
  <path class="cls-6" d="m538.14,456.36l-16.79,62.61-20.4-7.58c-4.37-1.62-8.67-3.39-12.92-5.31-24.59-11-46.88-26.68-65.73-46.21l-1.23-1.26-13.95-14.47,49.61-41.12c2.79,2.93,5.67,5.76,8.63,8.52,19.97,18.68,43.28,33.34,68.7,43.26,1.36.54,2.72,1.06,4.09,1.55Z"/>
  <path class="cls-6" d="m457.72,374.27l-73.94,24.53c5.06-97.19,76.19-113.35,101.76-116.06-16.19,36.62-24.14,70.96-27.82,91.54Z"/>
  <path class="cls-6" d="m563.4,443.5l8.12,78.28c85.6-44.43,71.08-116.7,63.07-141.41-26.41,29.93-54.13,51.31-71.19,63.13Z"/>
  <path class="cls-6" d="m489.89,516.74c-.1.17-.23.33-.33.51-22.02,34.03-63.57,63.94-115.68,79.14-64.79,18.92-146.08,14.52-182.33-14.56,18.55,5.95,46.14,7.11,74.64,4.66C156.51,571.14,38.09,509.64,0,445.71c39.27,31,94.87,54.49,158.78,64.76-22.77-17.57-39.41-38.5-47.61-60.31,22.95,25.9,60.32,48.07,105.26,59.59.1.02.21.05.32.08,18.31,4.67,37.36,6.05,56.16,4.15,57.49-5.8,108.06-23.18,144.67-48.55l1.31,1.37c2.53,2.62,5.13,5.19,7.78,7.68-16.53,10.75-126.28,79.06-216.41,60.33.98.57,48.41,27.77,144.17.48,0,0-14.03,27.58-54.19,29.51,0,0,65.86,35.55,178.48-53.44,3.35,1.73,6.76,3.38,10.19,4.94.33.15.65.31.98.44Z"/>
  <path class="cls-6" d="m484.86,519.62c-.18.13-.36.28-.54.41.1-.18.23-.34.34-.52.08.05.13.08.21.1Z"/>
  <path class="cls-6" d="m484.89,519.15c-.08.13-.16.23-.23.36-.34-.13-.65-.28-.98-.44.41.03.8.05,1.22.08Z"/>
  <path class="cls-1" d="m471.52,506.28c-.18.13-.36.28-.54.41.1-.18.23-.34.34-.52.08.05.13.08.21.1Z"/>
  <path class="cls-1" d="m471.55,505.81c-.08.13-.16.23-.23.36-.34-.13-.65-.28-.98-.44.41.03.8.05,1.22.08Z"/>
</svg>