<?xml version="1.0" encoding="UTF-8"?>
<svg id="Capa_1" data-name="Capa 1" xmlns="http://www.w3.org/2000/svg" viewBox="0 0 573 573">
  <defs>
    <style>
      .cls-1 {
        fill: #e52421;
      }

      .cls-2 {
        fill: #1d1d1b;
      }
    </style>
  </defs>
  <rect class="cls-2" x="101.7" y="225.34" width="48.9" height="123.38" rx="14.11" ry="14.11"/>
  <path class="cls-2" d="m357.93,119.15v335.75c0,11.36-12.75,18.06-22.11,11.62l-164.97-113.6c-3.82-2.63-6.11-6.98-6.11-11.62v-108.55c0-4.64,2.28-8.99,6.11-11.62l164.97-113.6c9.36-6.45,22.11.26,22.11,11.62Z"/>
  <path class="cls-2" d="m447.68,286.89c0,.13,0,.26-.01.39-.4,38.8-31.23,53.12-51.58,58.35-8.91,2.29-17.57-4.48-17.57-13.69v-90.11c0-9.2,8.66-15.98,17.57-13.69,20.35,5.23,51.18,19.55,51.58,58.35.01.13.01.26.01.39Z"/>
  <path class="cls-2" d="m474.79,286.89v.39h-.01c.01-.13.01-.26.01-.39Z"/>
  <path class="cls-2" d="m474.79,286.5v.39c0-.13,0-.26-.01-.39h.01Z"/>
  <path class="cls-1" d="m286.48,0C128.28,0,0,128.28,0,286.48c0,158.24,128.28,286.52,286.48,286.52,158.24,0,286.52-128.28,286.52-286.52C573,128.28,444.72,0,286.48,0Zm0,52.67c129.14,0,233.85,104.71,233.85,233.82,0,45.62-13.06,88.19-35.66,124.17L140.75,103.64c39.95-31.9,90.61-50.97,145.73-50.97Zm0,467.67c-129.14,0-233.82-104.71-233.82-233.85,0-51.08,16.38-98.32,44.2-136.78l346.99,309.74c-41.57,37.81-96.8,60.89-157.38,60.89Z"/>
</svg>