<?xml version="1.0" encoding="UTF-8"?>
<svg id="Capa_1" data-name="Capa 1" xmlns="http://www.w3.org/2000/svg" viewBox="0 0 626.91 369.64">
  <defs>
    <style>
      .cls-1, .cls-2 {
        fill: #fceb37;
      }

      .cls-3, .cls-4 {
        fill: #e99700;
      }

      .cls-3, .cls-2 {
        font-family: AlienEnergy-Italic, 'Alien Energy';
        font-size: 30.03px;
        font-style: italic;
      }
    </style>
  </defs>
  <polygon class="cls-4" points="0 96.49 72.33 238.98 122.11 206.16 84.71 137.18 125.07 146.36 130.43 113.15 173.9 173.26 222.95 153.24 172.04 19.06 98.39 41.88 91.22 82.64 40.93 61.67 0 96.49"/>
  <polygon class="cls-4" points="253.65 13.76 262.51 155.03 387.84 155.03 396.7 9.96 337.03 13.34 348.59 109.34 304.28 109.34 306.82 13.76 253.65 13.76"/>
  <polygon class="cls-4" points="436.73 54.75 481.28 113.12 418.52 134.62 446.76 198.86 502.73 159.36 524.48 217.12 588.43 192.68 547.77 138.01 626.91 113.18 587.06 40.76 518.03 89.39 500.52 23.99 436.73 54.75"/>
  <polygon class="cls-1" points=".45 84.63 76.05 217.12 132.74 189.75 95.34 120.77 135.7 129.95 141.06 96.74 184.53 156.85 233.58 136.83 182.67 2.65 109.02 25.47 101.85 66.23 51.56 45.26 .45 84.63"/>
  <polygon class="cls-1" points="247.71 3.8 256.57 145.06 381.9 145.06 390.76 0 331.09 3.38 342.65 99.37 298.35 99.37 300.88 3.8 247.71 3.8"/>
  <polygon class="cls-1" points="427.19 45.03 471.75 103.41 408.98 124.9 437.23 189.14 493.2 149.64 514.94 207.4 578.9 182.96 538.24 128.29 617.38 103.46 577.53 31.04 508.5 79.67 490.99 14.27 427.19 45.03"/>
  <text class="cls-3" transform="translate(85.72 274.7) rotate(50.69) scale(.91 1)"><tspan x="0" y="0"> </tspan></text>
  <text class="cls-3" transform="translate(94.93 285.56) rotate(44.03) scale(.91 1)"><tspan x="0" y="0"> </tspan></text>
  <text class="cls-3" transform="translate(105.11 295.37) rotate(37.59) scale(.91 1)"><tspan x="0" y="0">P</tspan></text>
  <text class="cls-3" transform="translate(122.61 308.57) rotate(31.61) scale(.91 1)"><tspan x="0" y="0">l</tspan></text>
  <text class="cls-3" transform="translate(140.91 319.67) rotate(26.84) scale(.91 1)"><tspan x="0" y="0">a</tspan></text>
  <text class="cls-3" transform="translate(159.81 329.12) rotate(22.75) scale(.91 1)"><tspan x="0" y="0">n</tspan></text>
  <text class="cls-3" transform="translate(179.16 337.14) rotate(19.07) scale(.91 1)"><tspan x="0" y="0">e</tspan></text>
  <text class="cls-3" transform="translate(198.88 343.89) rotate(15.63) scale(.91 1)"><tspan x="0" y="0">t</tspan></text>
  <text class="cls-3" transform="translate(218.9 349.42) rotate(12.33) scale(.91 1)"><tspan x="0" y="0">a</tspan></text>
  <text class="cls-3" transform="translate(238.93 353.67) rotate(9.77) scale(.91 1)"><tspan x="0" y="0"> </tspan></text>
  <text class="cls-3" transform="translate(251.17 355.82) rotate(7.24) scale(.91 1)"><tspan x="0" y="0">g</tspan></text>
  <text class="cls-3" transform="translate(271.74 358.38) rotate(4.05) scale(.91 1)"><tspan x="0" y="0">a</tspan></text>
  <text class="cls-3" transform="translate(292.45 359.78) rotate(.84) scale(.91 1)"><tspan x="0" y="0">l</tspan></text>
  <text class="cls-3" transform="translate(313.1 360.03) rotate(-2.37) scale(.91 1)"><tspan x="0" y="0">d</tspan></text>
  <text class="cls-3" transform="translate(333.83 359.11) rotate(-5.61) scale(.91 1)"><tspan x="0" y="0">u</tspan></text>
  <text class="cls-3" transform="translate(354.47 357.03) rotate(-8.85) scale(.91 1)"><tspan x="0" y="0">a</tspan></text>
  <text class="cls-3" transform="translate(375 353.77) rotate(-12.12) scale(.91 1)"><tspan x="0" y="0">r</tspan></text>
  <text class="cls-3" transform="translate(395.31 349.35) rotate(-15.45) scale(.91 1)"><tspan x="0" y="0">e</tspan></text>
  <text class="cls-3" transform="translate(415.36 343.75) rotate(-18.88) scale(.91 1)"><tspan x="0" y="0">n</tspan></text>
  <text class="cls-3" transform="translate(434.8 336.94) rotate(-21.74) scale(.91 1)"><tspan x="0" y="0"> </tspan></text>
  <text class="cls-3" transform="translate(446.58 332.31) rotate(-24.77) scale(.91 1)"><tspan x="0" y="0">b</tspan></text>
  <text class="cls-3" transform="translate(465.14 323.53) rotate(-27.45) scale(.91 1)"><tspan x="0" y="0">i</tspan></text>
  <text class="cls-3" transform="translate(471.65 320.29) rotate(-30.37) scale(.91 1)"><tspan x="0" y="0">l</tspan></text>
  <text class="cls-3" transform="translate(490.2 309.3) rotate(-35.5) scale(.91 1)"><tspan x="0" y="0">a</tspan></text>
  <text class="cls-2" transform="translate(85.55 273.98) rotate(50.92) scale(.91 1)"><tspan x="0" y="0"> </tspan></text>
  <text class="cls-2" transform="translate(94.72 284.88) rotate(44.18) scale(.91 1)"><tspan x="0" y="0"> </tspan></text>
  <text class="cls-2" transform="translate(104.91 294.75) rotate(37.65) scale(.91 1)"><tspan x="0" y="0">P</tspan></text>
  <text class="cls-2" transform="translate(122.44 307.99) rotate(31.56) scale(.91 1)"><tspan x="0" y="0">l</tspan></text>
  <text class="cls-2" transform="translate(140.79 319.1) rotate(26.72) scale(.91 1)"><tspan x="0" y="0">a</tspan></text>
  <text class="cls-2" transform="translate(159.72 328.51) rotate(22.58) scale(.91 1)"><tspan x="0" y="0">n</tspan></text>
  <text class="cls-2" transform="translate(179.11 336.48) rotate(18.84) scale(.91 1)"><tspan x="0" y="0">e</tspan></text>
  <text class="cls-2" transform="translate(198.86 343.15) rotate(15.37) scale(.91 1)"><tspan x="0" y="0">t</tspan></text>
  <text class="cls-2" transform="translate(218.92 348.59) rotate(12.04) scale(.91 1)"><tspan x="0" y="0">a</tspan></text>
  <text class="cls-2" transform="translate(238.97 352.74) rotate(9.47) scale(.91 1)"><tspan x="0" y="0"> </tspan></text>
  <text class="cls-2" transform="translate(251.25 354.83) rotate(6.92) scale(.91 1)"><tspan x="0" y="0">g</tspan></text>
  <text class="cls-2" transform="translate(271.84 357.28) rotate(3.74) scale(.91 1)"><tspan x="0" y="0">a</tspan></text>
  <text class="cls-2" transform="translate(292.53 358.57) rotate(.55) scale(.91 1)"><tspan x="0" y="0">l</tspan></text>
  <text class="cls-2" transform="translate(313.19 358.71) rotate(-2.64) scale(.91 1)"><tspan x="0" y="0">d</tspan></text>
  <text class="cls-2" transform="translate(333.87 357.7) rotate(-5.83) scale(.91 1)"><tspan x="0" y="0">u</tspan></text>
  <text class="cls-2" transform="translate(354.5 355.54) rotate(-9.01) scale(.91 1)"><tspan x="0" y="0">a</tspan></text>
  <text class="cls-2" transform="translate(374.97 352.23) rotate(-12.22) scale(.91 1)"><tspan x="0" y="0">r</tspan></text>
  <text class="cls-2" transform="translate(395.25 347.78) rotate(-15.48) scale(.91 1)"><tspan x="0" y="0">e</tspan></text>
  <text class="cls-2" transform="translate(415.29 342.17) rotate(-18.85) scale(.91 1)"><tspan x="0" y="0">n</tspan></text>
  <text class="cls-2" transform="translate(434.71 335.39) rotate(-21.66) scale(.91 1)"><tspan x="0" y="0"> </tspan></text>
  <text class="cls-2" transform="translate(446.47 330.78) rotate(-24.63) scale(.91 1)"><tspan x="0" y="0">b</tspan></text>
  <text class="cls-2" transform="translate(465.02 322.07) rotate(-27.27) scale(.91 1)"><tspan x="0" y="0">i</tspan></text>
  <text class="cls-2" transform="translate(471.55 318.84) rotate(-30.15) scale(.91 1)"><tspan x="0" y="0">l</tspan></text>
  <text class="cls-2" transform="translate(490.13 307.94) rotate(-35.23) scale(.91 1)"><tspan x="0" y="0">a</tspan></text>
  <path class="cls-1" d="m310.64,225.83c-82.33,0-149.06,10.86-149.06,24.26,0,7.28,19.71,13.82,50.94,18.27v-5.73c-22.19-3.29-35.75-7.69-35.75-12.53,0-10.18,59.94-18.43,133.87-18.43s133.87,8.25,133.87,18.43c0,3.97-9.1,7.64-24.58,10.64l2.25,5.47c23.34-4.29,37.51-9.93,37.51-16.1,0-13.4-66.73-24.26-149.06-24.26Z"/>
  <ellipse class="cls-4" cx="310.64" cy="247.1" rx="82.2" ry="60.89"/>
  <g>
    <path class="cls-1" d="m260.72,242.31l4.36-24.17h4.88l-4.55,25.38c-.74,4.03-2.46,6.04-5.17,6.04h-17.08l1.3-7.25h16.26Z"/>
    <path class="cls-1" d="m286.17,249.56h-13.01c-2.71,0-3.7-2.01-2.96-6.04l3.48-19.34c.72-4.03,2.43-6.04,5.14-6.04h13.01c2.71,0,3.71,2.01,2.99,6.04l-3.48,19.34c-.74,4.03-2.46,6.04-5.17,6.04Zm3.55-24.17h-11.38l-3.06,16.92h11.38l3.06-16.92Z"/>
    <path class="cls-1" d="m318.16,249.56h-7.19l-5.95-12.09h-2.12l-2.18,12.09h-4.88l5.66-31.43h4.88l-2.18,12.09h1.68l6.88-12.09h6.92l-9.67,16.3,8.14,15.13Z"/>
    <path class="cls-1" d="m337.15,249.56h-13.01c-2.71,0-3.7-2.01-2.96-6.04l3.48-19.34c.72-4.03,2.43-6.04,5.14-6.04h13.01c2.71,0,3.71,2.01,2.99,6.04l-3.48,19.34c-.74,4.03-2.46,6.04-5.17,6.04Zm3.55-24.17h-11.38l-3.06,16.92h11.38l3.06-16.92Z"/>
    <path class="cls-1" d="m352.67,239.89l-1.76,9.67h-4.88l4.59-25.38c.72-4.03,2.43-6.04,5.14-6.04h13.01c2.71,0,3.71,2.01,2.99,6.04l-4.59,25.38h-4.88l1.76-9.67h-11.38Zm12.69-7.25l1.3-7.25h-11.38l-1.3,7.25h11.38Z"/>
  </g>
  <path class="cls-1" d="m422.27,266.19c-27.31,5.01-67.16,8.16-111.54,8.16-37.57,0-71.9-2.26-98.12-5.99v-5.73c24.44,3.62,59.36,5.89,98.12,5.89,45.13,0,85.04-3.07,109.29-7.79l2.25,5.47Z"/>
</svg>